<svg xmlns="http://www.w3.org/2000/svg" xmlns:xlink="http://www.w3.org/1999/xlink" version="1.1" id="Capa_1" x="0px" y="0px" width="512px" height="512px" viewBox="0 0 18.633 18.633" style="enable-background:new 0 0 18.633 18.633;" xml:space="preserve" ><rect id="svgEditorBackground" x="0" y="0" width="18.632999420166016" height="18.632999420166016" style="fill:none;stroke:none;"/>
<g>
	<path d="M7.375,6.504c-1.141,-0.6539999999999999,-2.2809999999999997,-1.3089999999999993,-3.4210000000000003,-1.9629999999999992c0.609,-1.1890000000000005,1.3519999999999994,-2.3810000000000002,2.566,-3.572c0.15000000000000036,-0.16000000000000014,0.3470000000000004,-0.265,0.5899999999999999,-0.31400000000000006h0.258l0.18200000000000038,0.00800000000000023c0.5990000000000011,0.09999999999999987,1.1789999999999994,0.8910000000000001,1.4799999999999995,1.3379999999999996c0.2370000000000001,0.4049999999999998,0.4640000000000004,0.8149999999999995,0.6810000000000009,1.2289999999999996l-2.3360000000000003,3.2739999999999996ZM9.322,1.818c0.5480000000000018,0.9410000000000003,1.0649999999999995,1.916,1.5120000000000005,2.9570000000000003l-1.8129999999999988,1.0429999999999993l5.257999999999999,0.5039999999999996l2.213000000000001,-4.805l-1.83,1.053c-0.49799999999999933,-1.012,-1.133000000000001,-1.854,-2.096,-2.285c-1.7260000000000009,0.008000000000000673,-3.453000000000001,0.01600000000000068,-5.181000000000001,0.02500000000000069c0.684000000000001,-0.026000000000000023,1.3209999999999997,0.593,1.9369999999999994,1.508ZM13.34,8.673l0.021000000000000796,-0.028999999999999915v0.07199999999999918l1.350999999999999,2.875c0.5459999999999994,0.019999999999999574,1.093,0.02200000000000024,1.6400000000000006,0.016000000000000014c0.565999999999999,-0.0470000000000006,1.6189999999999998,-0.17599999999999838,1.9460000000000015,-0.7170000000000005c0.013000000000001677,-0.019000000000000128,0.021000000000000796,-0.03700000000000081,0.03200000000000003,-0.05599999999999916l0.13299999999999912,-0.23900000000000077c0,-0.10699999999999932,-0.015000000000000568,-0.2159999999999993,-0.0470000000000006,-0.3179999999999996c-0.4430000000000014,-1.641,-1.1170000000000009,-2.8710000000000004,-1.8550000000000004,-3.9859999999999998c-1.1289999999999996,0.6740000000000004,-2.2590000000000003,1.346000000000001,-3.388,2.021l0.16699999999999982,0.36100000000000065ZM16.366,11.95c-1.0890000000000004,0.019000000000000128,-2.1899999999999995,-0.0129999999999999,-3.317,-0.13100000000000023l-0.021000000000000796,-2.093l-3.0139999999999993,4.336l3.103999999999999,4.285000000000002l-0.021000000000000796,-2.1099999999999994c1.125,0.06299999999999883,2.17,-0.0799999999999983,3.0199999999999996,-0.7050000000000001c0.8389999999999986,-1.511000000000001,1.6780000000000008,-3.020999999999999,2.5180000000000007,-4.529c-0.3169999999999966,0.6079999999999988,-1.1699999999999982,0.8579999999999988,-2.2689999999999984,0.9469999999999974ZM5.364,12.251c-0.23599999999999977,0.45500000000000007,-0.45899999999999963,0.9160000000000004,-0.6740000000000004,1.386000000000001c-0.20399999999999974,0.532,-0.5410000000000004,1.536999999999999,-0.19399999999999995,2.0649999999999995c0.011999999999999567,0.019000000000000128,0.02400000000000002,0.03500000000000014,0.03699999999999992,0.053000000000000824l0.1639999999999997,0.2289999999999992c0.1379999999999999,0.09800000000000075,0.2869999999999999,0.1540000000000017,0.44399999999999995,0.17600000000000016c1.673,0.31099999999999994,3.0729999999999995,0.23000000000000043,4.397000000000001,0.045000000000001705c-0.12100000000000044,-1.309000000000001,-0.24200000000000088,-2.6189999999999998,-0.36400000000000077,-3.928000000000001l-3.8099999999999996,-0.026000000000001577ZM4.373,13.501c0.45399999999999974,-0.9870000000000001,0.9539999999999997,-1.971,1.5460000000000003,-2.9380000000000006l1.8979999999999997,0.8840000000000003l-2.614,-4.59l-5.203,0.9540000000000006l1.9140000000000001,0.8889999999999993c-0.542,0.9920000000000009,-0.863,1.9939999999999998,-0.6640000000000001,3.0280000000000005c1,1.4100000000000001,2,2.8179999999999996,3.002,4.226000000000001c-0.4139999999999997,-0.5449999999999999,-0.2729999999999997,-1.4220000000000006,0.12100000000000044,-2.453000000000001Z" fill="#11AC00" style="stroke: lime; stroke-width: 0.27px;stroke-opacity:0.46;fill-opacity:0.12;"/>
</g>
<g>
</g>
<g>
</g>
<g>
</g>
<g>
</g>
<g>
</g>
<g>
</g>
<g>
</g>
<g>
</g>
<g>
</g>
<g>
</g>
<g>
</g>
<g>
</g>
<g>
</g>
<g>
</g>
<g>
</g>
</svg>