<?xml version="1.0"?><svg width="640" height="480" xmlns="http://www.w3.org/2000/svg">
 <metadata id="metadata7">image/svg+xml</metadata>
 <g>
  <title>Layer 1</title>
  <path fill="#003f7f" fill-rule="nonzero" stroke-width="1px" d="m405.526001,414.057007c-3.175995,-0.871002 -6.352997,0.102997 -9.532013,0.634003c-6.186981,1.251984 -12.21698,3.097992 -18.306,4.734985c-6.472992,1.817017 -12.067993,5.382019 -17.72998,8.897003c-4.365997,3.197998 -7.591003,7.212006 -10.588013,11.598999c-3.477997,5.712006 -5.389984,12.164001 -7.147003,18.567017c-2.373993,8.004974 -3.526001,16.304993 -4.886993,24.528992c-1.165985,8.46698 -2.618011,16.876007 -3.983002,25.303009c-0.846008,7.304962 -2.411987,14.467987 -4.279999,21.569977c-1.569,5.546997 -3.450012,11.002991 -5.023987,16.557983c-1.393005,2.96405 -2.654999,6.022034 -3.966003,8.94104c-0.572998,1.817993 -1.485016,3.523987 -2.221008,5.20697c1.819,-4.47699 -0.651001,-6.170959 -5.286011,-7.528015c-0.234985,0.579041 2.403015,-1.201965 3.115997,-1.55896c3.825012,-3.471008 7.584015,-7.001038 11.046021,-10.827026c4.929993,-5.555969 10.617004,-10.385986 16.377991,-15.047974c5.303009,-4.28302 10.953003,-8.15802 16.506989,-12.087036c6.233002,-4.123962 12.406006,-8.338959 18.13501,-13.156982c7.539001,-6.60498 13.628998,-14.391998 19.628998,-22.345001c5.037994,-7.790985 8.856018,-16.182983 12.272003,-24.777985c2.951996,-7.117004 5.539001,-14.368011 8.101013,-21.631012c3.238983,-3.191986 2.541992,-6.531982 3.371979,-9.977997c0.473022,-1.964996 2.046021,-2.330994 2.819,-0.464996l0,0c1.602997,3.868011 2.839996,7.955994 4.503021,11.954987c0.27298,9.166016 -2.378021,17.556 -6.468018,25.725006c-4.565002,8.911011 -8.988983,17.990021 -14.869995,26.123016c-6.031006,8.875 -13.166992,17.046997 -20.667999,24.707977c-5.756012,5.904999 -11.457001,11.912018 -18.537994,16.26004c-5.471008,3.415955 -11.016998,6.746948 -16.225006,10.584961c-5.333984,4.403992 -10.471985,8.924988 -15.208008,13.962036c-4.641998,3.97699 -9.015991,8.388977 -14.704987,10.973999c-2.549011,1.445984 -5.102997,3.169983 -8.002014,3.724976c-6.475983,-1.612 -7.893982,-4.14502 -5.768982,-9.859009c0.781982,-1.338013 1.636993,-2.862976 2.494995,-4.268982c1.126007,-2.843994 2.479004,-5.723999 3.382996,-8.721985c2.528992,-4.830017 4.627991,-9.787048 6.290009,-14.986023c1.936981,-6.80603 3.855988,-13.604004 5.238983,-20.548004c1.670013,-8.320984 3.048004,-16.691986 4.446014,-25.066986c1.445984,-8.458008 3.222992,-16.841003 4.880981,-25.256012c2.047028,-7.128998 3.844025,-14.313995 7.280029,-20.942993c3.463989,-5.688995 6.810974,-11.31601 12.750977,-14.770996c6.10202,-4.144012 12.432007,-7.766022 19.041016,-11.052002c6.078979,-3.053009 12.264008,-5.795013 18.756989,-7.878998c4.02301,-1.355011 8.084015,-2.568024 12.153015,-3.757019c10.842987,-3.165985 11.703003,18.942017 0.80899,15.955017z" id="path2637"/>
  <path fill="#003f7f" fill-rule="nonzero" stroke-width="1px" d="m425.734985,406.285004c2.568024,0.102997 5.131012,1.04599 7.614014,1.825989c4.735016,1.226013 9.489014,2.197998 14.321014,2.966003c5.824982,1.563019 11.877991,1.824005 17.846985,2.044006c5.369995,0.177002 10.595001,-0.386017 15.852997,-1.299011c6.194,-1.066986 11.787018,-3.919983 17.427002,-6.556c5.348999,-2.813995 9.98999,-6.449982 14.487976,-10.424988c2.558044,-2.093018 3.904053,-5.067993 5.463013,-7.667999c1.093018,-1.109009 0.481018,-2.553009 0.700989,-3.720001c-0.023987,-0.502014 -0.201965,-0.828003 -0.320984,-1.320007c-0.187988,-0.367981 0.278992,0.777008 0.419006,1.166016c0.523987,0.30899 1.171997,0.328003 1.757996,0.491974c-3.700989,-0.171997 -7.471008,0.887024 -11.100006,1.675018c-6.526978,1.806 -13.125,3.321991 -19.675995,5.06601c-6.414001,1.516998 -12.824005,3.019989 -19.265991,4.40799c-6.65799,2.45401 -13.213013,3.263 -19.845001,2.779999c-6.992004,1.641998 -14.119995,2.497986 -21.23999,3.342987c-2.007019,0.239014 -2.325012,-2.600983 -0.318024,-2.838989l0,0c7.01001,-0.832001 14.030029,-1.671997 20.915009,-3.287994c5.602997,-3.334991 11.899994,-5.746002 18.794006,-6.872009c6.401001,-1.626007 12.872986,-2.862 19.342987,-4.238983c6.469025,-1.503998 12.799011,-3.335999 18.956024,-5.845001c4.043976,-1.550018 8.110016,-3.041016 12.200958,-4.414001c3.217041,-0.469025 5.249023,-1.179016 8.042053,1.141998c0.817993,1.523987 2.449951,2.815979 2.382996,4.699005c0.143982,1.617981 0.675964,3.201996 0.435974,4.898987c-0.604004,2.661987 -1.138977,5.338989 -2.322998,7.825012c-2.800964,3.673981 -5.307983,7.516998 -9.464966,9.873993c-5.348999,3.765991 -10.836029,7.390991 -16.800018,10.126007c-6.208008,3.334991 -12.453003,6.700989 -19.288025,8.576996c-5.969971,0.768005 -11.90799,1.135986 -17.918976,0.350983c-6.299011,-0.483002 -12.650024,-1.020996 -18.96701,-1.718994c-4.877991,-1.102997 -9.755005,-2.149994 -14.684998,-3.005005c-3.001007,-0.640991 -6.054993,-0.992004 -8.585999,-2.863983c-4.393005,-3.249023 -2.621002,-7.404999 2.837982,-7.186005z" id="path2639"/>
  <path fill="#003f7f" fill-rule="nonzero" stroke-width="1px" d="m542.557007,375.936005c5.869019,0.660004 10.865967,-0.873993 16.859009,-0.720001c10.114014,1.195984 20.203003,2.437012 30.286987,3.809998c11.900024,2.497009 23.072021,7.328003 34.559021,11.174988c10.216003,4.518005 20.643005,8.531006 30.748962,13.292023c6.622009,2.342987 12.580994,6.063995 18.817017,9.22699c3.773987,1.179993 6.651001,3.781006 9.620972,6.255005c4.07605,3.859985 5.256042,7.290985 4.585999,13.027008c-3.230957,6.415985 -6.213989,5.494995 -12.699951,3.414978c-1.924011,-0.617004 -1.204041,-0.320007 -1.737,-2.268982l0,0c-0.319031,-1.167999 -2.041016,-10.296021 -4.003052,-5.434021c0.077026,0.723999 1.203003,7.835022 0.674011,4.20401c-1.829956,-1.848999 -3.542969,-3.90799 -5.490967,-5.678009c-4.933044,-4.224976 -10.142029,-8.052979 -15.348999,-11.941986c-9.450012,-5.348999 -18.97699,-10.515015 -29.177002,-14.351013c-10.356995,-5.128998 -21.278015,-8.981995 -32.496033,-11.764984c-9.427002,-2.806 -18.855957,-3.947998 -28.727966,-3.404999c-5.700012,-0.205994 -10.510986,-2.197998 -16.040039,-0.902008c-5.472961,1.28299 -6.016968,-8.567993 -0.430969,-7.938995z" id="path2647"/>
  <path fill="#003f7f" fill-rule="nonzero" stroke-width="1px" d="m429.941986,380.307007c1.313019,-2.300018 3.235016,-4.210999 4.703003,-6.492004c1.75,-2.444 2.85202,-5.213013 3.964996,-7.97699c0.883026,-2.641022 1.476013,-5.351013 2.160004,-8.056c0.637024,-2.84201 0.335999,-5.673004 0.040009,-8.529999c-0.769989,-3.876007 -2.281006,-7.534027 -3.585999,-11.249023c-2.23999,-4.725983 -4.151001,-9.559998 -6.787994,-14.09198c-2.40799,-5.062012 -6.138,-9.333008 -9.694,-13.620026c-3.718018,-4.472992 -8.494995,-7.830994 -12.723999,-11.75c-3.938019,-3.359985 -7.976013,-6.586975 -12.179993,-9.603973c-2.686005,-2.055023 -5.641998,-3.710022 -8.462006,-5.553009c-1.585999,-0.712006 -2.95401,-1.73999 -4.445007,-2.615997c-0.756012,-0.181 -1.493011,-0.335999 -2.243011,-0.505005c-0.414978,-1.985992 -0.947998,-1.093994 -2.384003,-1.471008c-1.396973,0.938019 -2.442993,2.244019 -3.412994,3.600006c-1.421997,2.463013 -2.475006,5.098999 -3.518005,7.72699c-1.34198,3.282013 -1.78598,6.822998 -2.205994,10.322998c-0.304993,4.211029 -0.459991,8.486023 -0.345001,12.712006c0.27002,5.261993 1.115021,10.493011 2.115997,15.664001c1.291016,5.585999 3.115997,11.014008 4.824005,16.480011c2.210999,5.316986 4.434998,10.587006 7.140015,15.677002c2.880005,4.578979 5.289001,9.408997 8.591003,13.713989c3.570984,4.677002 7.707977,9.093994 12.300995,12.779999c3.28598,2.447998 5.617981,5.636017 9.179993,7.679993c0.876007,0.502014 0.164001,1.742004 -0.710999,1.238007l0,0c-3.626007,-2.083008 -7.816986,-3.026001 -10.916992,-5.990997c-4.738007,-4.122986 -9.667999,-8.020996 -13.545013,-13.031006c-3.182007,-4.630005 -6.290985,-9.369995 -8.479004,-14.566986c-2.59198,-5.308014 -5.233002,-10.670013 -6.953003,-16.330017c-2.069977,-5.500977 -3.444977,-11.231995 -4.470978,-17.013977c-1.203003,-5.357025 -2.315002,-10.701996 -2.52002,-16.210022c-0.108978,-4.431976 -0.173981,-8.803986 0.525024,-13.204987c0.587982,-3.734009 1.121979,-7.437988 2.257996,-11.063995c1.006989,-2.863007 2.018982,-5.734009 3.527985,-8.382996c1.029999,-2.140015 1.808014,-4.292023 3.787018,-5.838013c1.718994,-1.669006 3.406982,-3.274994 5.39798,-4.598999c2.130005,0.042999 4.167999,0.005005 6.113007,1.061005c2.298004,0.859985 4.412994,1.833984 6.222015,3.539001c2.967987,2.118988 5.732971,4.477997 8.505981,6.852997c3.985016,3.540009 7.932007,7.11499 11.804993,10.777985c4.618011,3.987 8.733002,8.554016 12.902008,13.009003c4.075012,4.564026 7.605011,9.514008 11.037994,14.56601c2.630005,4.82901 5.391998,9.644012 7.35202,14.790009c2.075989,4.11499 3.886993,8.384979 4.940002,12.885986c0.708984,4.002014 1.156982,7.934998 0.215973,11.97702c-0.66098,3.495972 -1.447998,6.891998 -3.228973,10.024994c-1.725006,3.046997 -3.576019,6.03598 -5.85202,8.735992c-1.753998,2.050995 -3.17099,4.524994 -5.131989,6.260986c-3.838013,3.396027 -8.352997,0.121002 -5.813019,-4.328979z" id="path2679"/>
  <path fill="#003f7f" fill-rule="nonzero" stroke-width="1px" d="m479.343994,379.285004c2.136993,-0.106995 4.205017,-0.878998 6.285004,-1.609009c5.649994,-2.53598 9.703003,-7.410004 13.536987,-12.097992c5.831024,-7.987 9.847015,-17.011993 13.495026,-26.14801c3.636963,-9.376007 6.406982,-19.048004 8.97998,-28.757996c2.049011,-7.919983 3.481995,-15.968994 4.752991,-24.042999c0.992004,-6.338989 1.465027,-12.755005 1.299988,-19.167999c0.001038,-4.804993 -0.804993,-9.51001 -1.595947,-14.225998c-0.768005,-3.598007 -1.851013,-7.125 -2.981995,-10.611008c-0.434021,-2.102997 -1.604004,-3.735992 -2.832031,-5.40799c-0.365967,-0.615997 -0.955017,-1.068008 -1.432983,-1.600998c2.083008,-1.401001 -2.632996,0.470993 -3.237,0.757996c-4.38501,3.057999 -7.835999,7.097 -11.058014,11.322998c-4.906006,6.964005 -8.540009,14.643997 -12.235992,22.284012c-4.733002,9.64798 -8.889008,19.552002 -12.690002,29.599976c-4.041992,10.922028 -7.451996,22.068024 -10.354004,33.343018c-2.621002,10.722992 -4.644989,21.597992 -5.710999,32.587982c-0.908997,4.488007 -0.679993,9.02301 -0.450012,13.555023c0.050995,1.009003 -1.376984,1.080994 -1.427002,0.071991l0,0c-0.231995,-4.614014 -0.330994,-9.226013 -0.365997,-13.847015c1.097015,-11.125977 3.013,-22.112 6.377014,-32.803986c3.315002,-11.204987 6.432007,-22.480011 10.595001,-33.412994c3.816986,-10.08902 7.761993,-20.140991 12.691986,-29.748993c3.822998,-7.666016 7.481995,-15.414017 11.351013,-23.052017c2.725006,-5.076996 5.737,-9.974991 9.811981,-14.093002c2.916016,-3.243988 5.721985,-6.626999 10.53302,-5.822998c2.601013,1.320007 4.627014,2.709 6.307983,5.203003c1.372009,2.725998 2.557007,5.501999 3.28302,8.490005c0.828979,3.921997 1.622986,7.854996 2.211975,11.82399c0.708984,5.192017 1.143005,10.425018 0.892029,15.674011c-0.311035,6.825989 -0.86499,13.639984 -2.301025,20.337982c-1.776978,8.153015 -4.148987,16.157013 -6.567017,24.140015c-2.857971,9.811005 -5.850952,19.559998 -9.523987,29.105988c-3.703003,9.540009 -7.678986,19.029022 -12.836975,27.887024c-3.746002,6.377991 -7.950012,12.281982 -14.118011,16.553986c-2.68399,1.722992 -5.516998,3.717987 -8.610992,4.27301c-7.490997,1.34198 -9.675995,-10.183014 -2.075012,-10.561005z" id="path2687"/>
  <path fill="#003f7f" fill-rule="nonzero" stroke-width="1px" d="m508.973999,374.274994c2.729004,-1.192993 5.281006,-3.088989 7.695007,-4.878998c5.740967,-4.595001 10.848022,-9.916992 15.848999,-15.290009c5.299988,-5.978973 10.044006,-12.399994 14.466003,-19.043976c3.960999,-6.300018 7.88501,-12.596008 11.570007,-19.059998c3.411011,-5.72702 6.687988,-11.446014 8.770996,-17.835022c0.294006,-1.005981 0.588013,-2.013 0.881958,-3.018982c0.28302,-0.970001 1.654053,-0.569 1.371033,0.399994l0,0c-0.297974,1.020996 -0.596985,2.040985 -0.89502,3.061981c-2.099976,6.437012 -3.864014,13.091003 -6.919983,19.123016c-3.432983,6.721985 -7.231995,13.341003 -11.703003,19.428009c-4.664001,6.665985 -9.176025,13.466003 -14.533997,19.606995c-4.823975,5.722992 -10.065979,11.067993 -14.919006,16.763c-2.312012,2.785004 -4.5,5.695007 -7.148987,8.177002c-4.480011,4.196991 -10.109009,-4.975006 -4.484009,-7.433014z" id="path2689"/>
  <path fill="#003f7f" fill-rule="nonzero" stroke-width="1px" d="m576.276978,246.602997c-0.32196,-1.335999 0.395996,-3.343994 0.783997,-4.897995c0.592041,-2.535995 0.634033,-5.104004 0.499023,-7.684998c0.164001,-2.117004 -0.210022,-4.210999 -0.447021,-6.300003c0.098022,-0.701004 -0.550964,-1.949997 -0.625,-2.212997c1.845032,1.147995 0.019043,-0.098999 -0.172974,0.899002c-3.746033,2.873001 -6.268005,6.953995 -8.671021,10.944c-4.528992,7.401993 -9.365967,14.606995 -14.188965,21.816986c-5.345032,7.869019 -10.790039,15.666016 -16.045044,23.596008c-5.25,7.88501 -10.199951,15.963013 -14.802002,24.242004c-0.490967,0.882996 -1.738953,0.188995 -1.248962,-0.694l0,0c4.620972,-8.312012 9.588989,-16.42099 14.860962,-24.338013c5.255005,-7.929993 10.70105,-15.72998 16.048035,-23.600006c4.809998,-7.191986 9.63501,-14.377991 14.151978,-21.759979c2.582031,-4.285004 4.588989,-8.889999 7.40802,-13.025009c2.213989,-2.304001 3.878967,-3.367996 6.721985,-1.259995c0.874023,1.621002 1.752014,3.003998 1.544983,5.048004c-0.018982,2.274994 -0.125977,4.543991 -0.125,6.819c-0.399963,2.696991 -0.689941,5.387985 -0.891968,8.104996c-0.096008,1.757004 0.051025,3.970993 -0.801025,5.310989c-1.565979,2.462006 -3.315979,1.828003 -4,-1.007996z" id="path2691"/>
  <path fill="#003f7f" fill-rule="nonzero" stroke-width="1px" d="m545.166992,353.329987c1.694031,-3.776001 4.799011,-6.388977 7.552002,-9.356995c6.424011,-6.816986 11.14801,-14.940002 16.867981,-22.319977c7.404053,-8.884003 14.436035,-18.051025 21.145996,-27.468018c7.103027,-10.428986 14.647034,-20.72699 20.111023,-32.131989c4.36499,-9.020004 7.457031,-18.507004 10.05603,-28.155014c2.356995,-7.681 4.070984,-15.535995 5.893982,-23.355988c1.023987,-5.839005 1.826965,-11.695007 2.093018,-17.617004c0.519958,-3.138 -0.416016,-6.057007 -1.19104,-8.94101c-0.419983,-0.995987 -1.369995,-1.32399 -2.138977,-1.925995c-0.100037,-0.337997 -1.393005,0.298004 -1.999023,0.427002c-6.742004,2.244003 -11.653992,6.106003 -16.151978,11.503998c-4.203003,5.576004 -2.112976,2.665009 -6.247986,8.751007c-0.567993,0.834991 -1.75,0.031998 -1.182007,-0.803009l0,0c4.190002,-6.162003 2.07196,-3.212997 6.33197,-8.862991c4.756042,-5.705002 8.195007,-12.253998 13.213989,-17.660004c3.968018,-2.880997 7.840027,-3.834 12.216003,-1.227005c2.274048,2.222 4.186035,4.485001 4.746033,7.755005c0.227966,4.065994 0.024963,7.912994 -0.997986,11.893997c-1.359009,5.945999 -2.906006,11.837997 -4.713013,17.671997c-1.984009,7.856003 -4.288025,15.628006 -6.273987,23.48201c-3.239014,9.608994 -7.130005,19.011002 -11.986023,27.925003c-6.185974,11.143982 -11.591003,22.737 -18.760986,33.332977c-6.380005,9.739014 -13.291992,19.078003 -20.355042,28.32901c-5.646973,7.433014 -11.932983,14.403992 -16.738953,22.444c-2.228027,3.468018 -4.103027,7.102997 -7.485046,9.619995c-2.947998,2.194 -5.510986,0.042023 -4.005981,-3.311005z" id="path2693"/>
  <path fill="#003f7f" fill-rule="nonzero" stroke-width="1px" d="m402.593994,401.421997c-3.28598,-1.065002 -6.565979,-2.089996 -9.89798,-3.024994c-8.900024,-2.636017 -17.569,-5.916016 -26.187012,-9.362c-12.248993,-3.886993 -23.65799,-9.562012 -34.377014,-16.588013c-11.338989,-7.80899 -20.578979,-18.002991 -29.267975,-28.565979c-7.128021,-8.732025 -13.345001,-18.131012 -19.358002,-27.646027c-3.320007,-5.590973 -5.544006,-11.690979 -8.038025,-17.663971c-1.263,-2.63501 -2.350983,-5.351013 -3.524994,-8.028015c-0.654999,-1.247986 -1.307983,-2.444 -2.016998,-3.661987c-0.796997,-4.036011 1.585999,-5.264008 5.226013,-5.154999c3.481995,1.376984 6.71698,3.28299 10.263,4.488983c6.561981,2.971008 13.493988,5.050995 20.332001,7.285004c9.666992,4.072998 18.815979,9.302002 27.507996,15.161011c8.859985,5.279999 17.005005,11.500977 24.687988,18.35498c3.787994,4.169006 7.054016,8.703003 10.769012,12.957001c0.664001,0.761017 -0.412018,1.701019 -1.076019,0.940002l0,0c-3.686981,-4.223999 -7.747986,-7.699005 -12.242981,-11.044983c-7.518005,-6.732025 -15.444,-13.02002 -23.597015,-18.96402c-8.692993,-5.441986 -17.25,-11.264984 -27.037994,-14.610992c-6.751984,-2.584991 -13.792999,-4.174988 -20.848999,-5.710999c-3.182007,-1.112 -6.509003,-2.006012 -9.881989,-2.227997c0.968994,-0.703003 3.43399,-1.380005 2.660004,-3.692017c0.337982,1.015015 0.616974,2.513 1.113983,3.628998c0.863007,2.934021 1.615997,5.920013 1.854004,8.988007c1.243988,6.156006 3.446014,12.042999 6.061005,17.753021c4.687988,10.174988 11.214996,19.254974 18.251007,27.941986c8.595978,10.453003 17.733002,20.54599 28.948975,28.278992c10.59201,6.949005 21.876007,12.675995 34.069,16.291016c8.821014,2.127991 17.758026,4.225006 26.835022,4.794983c2.940979,0.275024 6.019989,0.851013 8.924988,0.251007c6.117004,-1.263 5.790009,10.757996 -0.151001,8.832001z" id="path2699"/>
  <path fill="#003f7f" fill-rule="nonzero" stroke-width="1px" d="m394.548004,400.93399c-2.28299,1.050995 -4.826019,1.389008 -7.32901,1.688019c-6.144989,0.565002 -12.294006,1.09198 -18.471985,1.143982c-10.181,0.01001 -20.363007,-0.199005 -30.546021,-0.151978c-12.908997,0.177979 -25.744995,-0.78302 -38.617981,-1.582001c-14.317017,-1.027008 -28.488007,-3.083008 -42.520996,-6.067017c-14.069016,-2.966003 -27.727005,-7.35199 -41.323013,-11.953003c-11.25,-3.716003 -22.102997,-8.431 -32.800995,-13.483002c-6.904007,-3.554993 -13.992004,-6.834991 -20.716003,-10.738007c-3.824997,-1.969971 -7.341003,-4.528992 -10.798004,-7.076996c-2.537994,-1.891998 -4.352997,-4.248993 -5.890991,-6.953003c-1.173004,-2.135986 -1.666,-4.481995 -2.207001,-6.815979c-0.423004,-1.571014 -0.417007,-3.140015 -0.363998,-4.742004c0.097992,-2.571014 1.442001,-4.048004 3.033997,-5.876007c2.636993,-1.350006 5.307999,-0.951996 8.115997,-0.770996c4.141006,-0.192993 8.287994,0.088013 12.434998,0.091003c6.55101,0.454987 13.098007,0.790009 19.623001,1.554993c7.677002,0.888 15.333008,1.925018 23.009003,2.830994c8.009995,0.795013 15.742004,3.053009 23.453003,5.246002c8.12999,2.502014 16.255997,5.028015 24.431992,7.380005c7.945007,2.252014 15.230011,6.053009 22.893005,9.041016c0.94101,0.366974 0.421997,1.697998 -0.519012,1.330994l0,0c-7.67099,-2.992004 -15.630981,-4.069 -23.552994,-6.287018c-8.169998,-2.36499 -16.330994,-4.710999 -24.492996,-7.099976c-7.518005,-2.132019 -15.143005,-3.771027 -22.860001,-5.019012c-7.563004,-1.23999 -15.168991,-1.936005 -22.813995,-2.453003c-6.328003,-0.406982 -12.656998,-1 -18.992004,-0.369995c-3.990997,0.242004 -7.891998,0.976013 -11.828995,1.625c-0.339996,0.10199 -4.725998,1.497986 -2.410004,1.075989c0.242996,-0.399994 1.298996,-1.579987 1.121002,-1.802002c0.026993,0.223999 0.345993,1.644012 0.278,2.32901c0.227005,1.174011 0.345001,2.355988 1.020004,3.377014c0.994995,1.358002 1.919998,2.738983 3.289993,3.763977c3.087006,2.489014 6.289993,4.847015 9.427994,7.282013c6.111008,4.424988 12.122009,8.950989 18.697006,12.687012c9.947998,5.881989 20.167007,11.360992 30.912994,15.652985c13.25,4.916016 26.876999,8.868011 40.715012,11.752991c13.855988,2.614014 27.867981,4.567017 41.949982,5.391998c12.70401,0.786011 25.449005,0.595001 38.160004,-0.001984c10.076019,-0.381012 20.151001,-1.031006 30.179016,-2.042999c6.001984,-0.649994 12.014008,-1.063995 18.010986,-1.737c2.459015,-0.192993 4.992004,-0.464996 7.341003,0.346985c5.007996,1.731018 5.770996,5.216003 0.958008,7.431z" id="path2725"/>
  <path fill="#003f7f" fill-rule="nonzero" stroke-width="1px" d="m425.824005,297.247009c0.990997,-2.774017 2.789001,-5.112 4.71698,-7.309998c3.354004,-4.912018 6.721008,-9.826019 10.235016,-14.628021c3.490997,-5.10498 7.131989,-10.080994 11.233002,-14.713989c3.281006,-3.773987 7.240997,-6.272003 12.048004,-7.518005c5.080994,-0.894989 9.367981,1.348007 13.229004,4.407013c4.839996,3.002991 6.752991,8.009979 9.720978,12.475983c0.404022,0.690002 0.808014,1.380005 1.213013,2.071014c0.51001,0.871002 -0.723999,1.592987 -1.234009,0.721008l0,0c-0.389008,-0.667023 -0.778992,-1.335022 -1.169006,-2.002014c-2.692993,-4.05899 -7.135986,-6.862 -10.686981,-10.161987c-3.231018,-1.90802 -6.459015,-3.679016 -10.317993,-3.554016c-4.151001,0.813995 -7.783997,2.29599 -10.83902,5.436005c-4.350006,4.214996 -8.177979,8.927002 -11.55899,13.954987c-3.143005,4.968018 -6.34201,9.89801 -9.039001,15.131012c-0.705994,2.234985 -1.69101,4.390015 -1.960999,6.707001c-0.464996,3.990997 -6.94101,2.766998 -5.589996,-1.015991z" id="path2731"/>
  <path fill="#003f7f" fill-rule="nonzero" stroke-width="1px" d="m438.631989,276.621002c-0.60199,-0.93399 -1.694977,-1.653992 -2.571991,-2.410004c-1.401001,-1.571991 -3.199005,-2.679993 -4.889984,-3.894012c-1.803009,-1.033997 -3.810028,-1.549988 -5.808014,-2.054993c-2.259003,-0.429993 -4.535004,-0.437988 -6.816986,-0.488007c-2.163025,0.051025 -4.210999,0.682007 -6.266998,1.266022c-1.879028,0.667999 -3.354004,2.002991 -4.914001,3.184998c-1.700012,1.531006 -3.044006,3.381989 -4.325012,5.257996c-1.213013,1.740997 -2.013,3.695007 -2.942017,5.600006c-0.144989,0.294006 -0.290985,0.587982 -0.435974,0.881989c-0.447998,0.904999 -1.557007,0.524017 -1.351013,-0.464996l0,0c0.067993,-0.325012 0.136017,-0.649994 0.20401,-0.975006c0.544983,-2.233002 1.085999,-4.518005 2.283997,-6.501984c1.381989,-2.071014 2.770996,-4.152008 4.527008,-5.951996c1.793976,-1.725006 3.5,-3.39502 5.990997,-4.076019c2.337006,-0.696991 4.707001,-1.110992 7.151978,-1.25c2.519012,-0.048004 5.03302,0.06601 7.494019,0.665009c2.373993,0.514984 4.691986,1.052002 6.721985,2.47699c1.858002,1.231995 3.723022,2.440002 5.5,3.778992c1.113007,0.965027 2.216003,1.884003 3.119995,3.04303c1.429016,1.83197 -1.412994,3.86499 -2.671997,1.911987z" id="path2737"/>
  <path fill="#003f7f" fill-rule="nonzero" stroke-width="1px" d="m352.072998,319.812012c0.096008,-1.524017 -0.368988,-3.032013 -0.664001,-4.519012c-1.007996,-3.850006 -1.850983,-7.73999 -2.778992,-11.627991c-0.983002,-5.417999 -2.442017,-10.737 -3.520996,-16.143005c-0.778015,-5.406006 -1.443024,-10.796997 -1.654022,-16.265015c-0.207977,-4.954987 0.887024,-9.806 1.710999,-14.655975c0.601013,-3.472015 1.121002,-6.952011 1.951019,-10.37001c0.494995,-2.695999 1.97699,-4.145996 4.132996,-5.557007c3.294006,-1.220001 5.401001,0.182007 7.864014,2.294006c3.235992,3.507004 6.5,7.007004 9.764984,10.5c3.856995,3.972 7.026001,8.503006 10.059998,13.111984c0.556,0.844025 -0.638,1.629028 -1.192993,0.785004l0,0c-2.98999,-4.541992 -6.109009,-9.007996 -9.911011,-12.921997c-3.164978,-3.385986 -6.300995,-6.853989 -10.186981,-9.43399c-1.619995,-0.654999 -2.964996,-1.637009 -4.787018,-1.302002c-1.195007,1.057999 -2.444,1.783005 -3.023987,3.440994c-1.226013,3.197006 -2.433014,6.387009 -3.132996,9.75502c-1.044006,4.692993 -1.421997,9.503998 -1.419006,14.306976c0.070984,5.333008 0.436005,10.749023 1.759003,15.925995c1.061981,5.324005 2.098999,10.736023 4.113007,15.787018c1.315979,3.727997 2.971985,7.220001 4.866974,10.669983c0.854004,1.616028 1.653015,3.249023 2.376007,4.927002c1.806,4.194 -6.613983,5.848999 -6.326996,1.292023z" id="path2741"/>
  <path fill="#003f7f" fill-rule="nonzero" stroke-width="1px" d="m304.119995,291.911987c-0.752991,-1.600983 -1,-3.406982 -1.385986,-5.122986c-0.865021,-3.674988 -1.674011,-7.339996 -2.264008,-11.075012c-0.859009,-5.459991 -1.790009,-10.914001 -3.022003,-16.303986c-0.889008,-4.742996 -2.162994,-9.417007 -2.852997,-14.193008c-0.691986,-3.755997 -1.30899,-7.521988 -1.864014,-11.300995c-0.402985,-2.100998 -0.763977,-4.175003 -1.002991,-6.296997c0.095001,-3.052002 1.455017,-3.737 4.080017,-4.661011c2.250977,0.744003 3.720978,2.610001 5.303986,4.283005c2.653992,2.772003 4.988007,5.819 7.39801,8.800003c3.347992,3.694992 6.251984,7.692001 9.095978,11.783005c3.113007,4.519989 6.057007,9.14798 9.042023,13.75c2.889984,4.096008 5.291992,8.455994 7.716003,12.82901c1.707001,4.281982 3.631989,8.455994 5.177979,12.806976c1.442993,3.867004 2.553009,7.839996 3.761017,11.782013c0.514984,3.09201 0.979004,6.18399 1.583984,9.259003c0.195007,0.990997 -1.057983,1.324982 -1.380981,0.367981l0,0c-0.996002,-2.953003 -2.094025,-5.850983 -3.318024,-8.723999c-1.105988,-3.927002 -2.341003,-7.815002 -3.492981,-11.72998c-1.403015,-4.239014 -2.536011,-8.622009 -4.882019,-12.466003c-2.059998,-4.455017 -4.560974,-8.709991 -7.05899,-12.931c-2.839996,-4.640015 -5.815002,-9.201004 -9.044983,-13.582001c-2.917023,-3.934006 -5.810028,-7.876999 -9.008026,-11.57901c-2.503998,-2.701996 -5.079987,-5.335999 -8.118988,-7.444c-0.459015,-0.302994 -3.122009,-2.391998 -2.725006,-1.386002c0.153992,-0.107986 2.673004,-1.68399 1.85202,-1.167999c-0.095001,1.911011 -0.308014,3.839005 -0.11203,5.759003c0.304016,3.742996 0.545013,7.479004 1.02301,11.207001c0.821991,4.701004 1.313019,9.462997 2.343018,14.132004c0.922974,5.368988 1.942993,10.76001 3.655975,15.938995c1.258026,3.44101 2.492004,6.89801 3.960999,10.25c0.687012,1.627014 1.487,3.233002 1.919006,4.95401c1.153015,4.597992 -4.360992,6.350983 -6.378998,2.061981z" id="path2749"/>
  <path fill="#003f7f" fill-rule="nonzero" stroke-width="1px" d="m303.089996,292.527008c-1.329987,-1.800018 -2.19101,-3.955994 -3.174011,-5.987c-2.002991,-4.52002 -4.370972,-8.843994 -6.396973,-13.363007c-2.556,-5.091003 -5.597015,-9.917999 -7.927002,-15.118988c-2.531006,-5.453018 -4.515015,-11.122009 -6.253021,-16.869019c-1.536987,-5.261993 -3.570984,-10.330994 -5.306976,-15.522995c-1.811005,-4.240005 -2.782013,-8.761002 -3.947998,-13.201004c-0.780029,-3.891998 -1.207001,-7.832001 -1.828003,-11.75c-0.256012,-2.865997 -1.067017,-5.569 -1.251007,-8.432999c-0.289001,-2.321991 -0.496002,-4.632996 -0.682007,-6.966995c-0.257996,-1.492996 -0.238983,-3.014008 -0.343994,-4.509003c-0.03299,-2.128006 0.848999,-4.095001 1.492981,-6.056c0.420013,-1.386002 0.817017,-2.712997 1.230011,-4.050003c0.376007,-1.830994 1.712006,-2.703995 2.988007,-3.880997c2.136993,-1.363998 4.406006,-1.091995 6.796997,-0.742996c3.161011,1.332993 5.790009,3.520996 8.459991,5.631989c3.912994,3.009003 7.515015,6.392014 11.274017,9.584015c4.341003,4.293991 8.514984,8.778992 12.576996,13.342987c4.29599,4.657013 8.007996,9.814011 11.819,14.878006c3.441986,4.832001 5.929993,10.203995 8.027008,15.725998c1.293976,2.677002 2.431976,5.423996 3.557983,8.173996c0.382996,0.935013 -0.938995,1.476013 -1.321991,0.541l0,0c-1.115997,-2.724991 -2.243011,-5.445999 -3.524994,-8.098999c-2.921021,-4.987 -5.634003,-10.069992 -8.76001,-14.935989c-3.391998,-5.299011 -7.447998,-9.859009 -11.936005,-14.26001c-4.265991,-4.240997 -8.248993,-8.757004 -12.833984,-12.67099c-3.46701,-3.226013 -7.290009,-6.026001 -11.375,-8.42601c-2.470001,-1.14299 -4.921021,-2.421997 -7.660004,-2.778c-0.494995,-0.177994 -0.805023,-0.507004 -1.187012,-0.425995c-0.161011,0.214005 -0.419006,0.425003 -0.544006,0.724991c-0.519989,1.222 -1.080994,2.421005 -1.54599,3.714005c-0.384003,1.24501 -0.822998,2.404999 -0.722992,3.766006c0.006989,1.526993 0.174988,3.087997 -0.072021,4.619995c-0.036987,2.233002 -0.130981,4.447998 -0.021973,6.679001c0.251984,2.822006 -0.132019,5.591995 0.125,8.421005c0.149994,3.812988 0.520996,7.615997 1.265991,11.362c0.859985,4.393997 1.841003,8.748001 2.950989,13.090988c1.498016,5.26001 2.696014,10.586014 4.356995,15.803009c1.851013,5.602005 3.371002,11.347 5.985016,16.664001c2.574005,5.048004 4.945007,10.187988 7.820984,15.078003c2.577026,4.130005 4.845001,8.459991 7.904999,12.255981c1.413025,1.693024 2.925018,3.33902 4.220001,5.077026c2.171997,2.915985 -2.075989,5.836975 -4.235992,2.912994z" id="path2751"/>
  <path fill="#003f7f" fill-rule="nonzero" stroke-width="1px" d="m338.385986,258.390015c-1.088989,-2.465012 -1.645996,-5.111008 -2.313995,-7.698013c-1.436981,-4.712006 -2.893005,-9.429001 -4.68399,-14.020996c-2.199005,-5.46701 -3.550995,-11.192001 -4.687988,-16.957001c-1.019012,-5.814011 -2.06601,-11.624008 -3.115021,-17.432999c-0.865997,-4.39801 -1.438995,-8.840012 -1.958984,-13.286011c-0.279022,-3.646988 -0.576019,-7.293991 -0.746002,-10.949997c-0.274994,-2.662994 -0.356995,-5.362 -0.343994,-8.037003c-0.126007,-2.024002 0.510986,-3.935989 0.935974,-5.884003c0.972015,-2.383987 2.076019,-3.160995 4.490021,-3.684998c3.289001,0.531006 6.079987,2.391998 8.821991,4.184998c4.121002,3.23201 8.376007,6.280014 12.432007,9.595001c4.449982,3.644012 8.121002,8.064011 11.605011,12.606003c2.268982,2.891006 4.457001,5.807999 6.483978,8.872009c0.557007,0.841995 -0.541992,1.628998 -1.161987,0.830994l0,0c-2.239014,-2.882004 -4.355011,-5.845993 -6.455994,-8.834c-3.416016,-4.455002 -7.012024,-8.794006 -11.374023,-12.369003c-3.971985,-3.246002 -7.988983,-6.578003 -12.639984,-8.810989c-2.402008,-1.136002 -4.632996,-2.729004 -7.373016,-2.616013c-0.477997,0.376007 -1.898987,-0.128998 -1.596985,1.258011c-0.558014,1.656998 -1.069,3.285995 -1.20401,5.04599c-0.274994,2.602005 -0.389008,5.225998 -0.623993,7.837006c-0.113007,3.615997 -0.256012,7.212006 0.242004,10.811005c0.44101,4.418991 1.009003,8.817993 1.873993,13.176987c1.046997,5.802002 2.093994,11.604004 3.110992,17.411011c1.117004,5.669998 2.39801,11.334991 4.673004,16.67099c1.921021,4.569 4.265015,8.945007 6.136017,13.53801c1.082001,2.237991 2.199982,4.492004 3.191986,6.770996c1.187988,2.727997 -2.514984,4.694 -3.71701,1.972015z" id="path2755"/>
  <path fill="#003f7f" fill-rule="nonzero" stroke-width="1px" d="m341.283997,256.585999c0.399017,-2.123001 0.380005,-4.309006 0.416992,-6.468002c0.154999,-3.541992 -0.070984,-7.098999 -0.21698,-10.647003c-0.175018,-3.67099 -0.14502,-7.345993 -0.097015,-11.019989c0.10202,-2.671005 -0.237,-5.283997 -0.634003,-7.906998c-0.212006,-2.179001 -0.304993,-4.348007 -0.483002,-6.492004c-0.386993,-1.871002 -0.000977,-3.660995 0.333008,-5.488998c0.13501,-1.56601 1.220001,-2.492996 2.057007,-3.673004c1.363983,-1.705994 2.80899,-1.419998 4.694,-1.589005c3.006989,0.494003 5.411987,2.169006 7.78299,3.963013c3.050995,2.514999 5.638,5.449997 7.884003,8.689987c2.596008,4.042007 4.753998,8.341003 6.964996,12.598007c2.136993,4.259995 4.164001,8.574997 6.171997,12.897003c1.788025,3.561996 3.097015,7.281998 4.40802,11.024994c0.15799,0.496002 0.316986,0.990997 0.474976,1.487c0.308014,0.962006 -1.052979,1.397003 -1.360992,0.434998l0,0c-0.156006,-0.488998 -0.311981,-0.977997 -0.467987,-1.466995c-1.290009,-3.686996 -2.751007,-7.307999 -4.350006,-10.878006c-1.998993,-4.302994 -4.016998,-8.598999 -6.143005,-12.839996c-2.18399,-4.203995 -4.315002,-8.449997 -6.872009,-12.444c-2.127991,-3.078995 -4.511993,-6.031998 -7.665985,-8.108994c-2.213989,-1.156998 -4.352997,-2.57901 -6.957001,-2.718002c-0.876007,0.257004 -1.812012,0.014999 -2.44101,0.839005c-0.569977,0.786987 -1.269989,1.456985 -1.667999,2.354996c-0.161987,1.598999 -0.363983,3.196991 -0.395996,4.811005c0.071014,2.121994 0.222015,4.274994 0.369995,6.435989c-0.053986,2.695999 -0.139984,5.395996 -0.273987,8.093002c-0.046997,3.647995 -0.076996,7.296997 0.096008,10.942001c0.145996,3.533997 0.224976,7.091003 0.837982,10.574997c0.291016,2.076996 0.489014,4.225998 1.296997,6.170013c1.029022,2.471985 -4.255981,3.056976 -3.761993,0.424988z" id="path2763"/>
  <path fill="#003f7f" fill-rule="nonzero" stroke-width="1px" d="m362.308014,217.119995c0.320984,-1.839996 0.440979,-3.724991 0.567993,-5.588989c0.006989,-2.979004 0.679993,-5.853012 1.386993,-8.726013c0.619995,-3.247986 1.746002,-6.369995 2.966003,-9.431992c1.335999,-2.914001 3.471985,-4.919006 5.927002,-6.852997c2.117004,-1.650009 4.554993,-2.727997 6.911987,-3.971008c2.580994,-1.381989 5.13501,-1.445999 7.921021,-1.269989c3.691986,1.138992 6.298981,3.802994 9.039001,6.347c3.590973,3.375992 5.293976,8.050995 6.985992,12.561996c0.35498,0.945999 -0.984009,1.446991 -1.337006,0.500992l0,0c-1.618988,-4.330002 -3.925995,-8.060989 -7.281006,-11.29599c-2.442993,-1.962006 -4.88501,-3.981003 -8.024994,-4.662003c-2.152008,-0.149002 -3.917999,-0.335007 -5.906006,0.882004c-2.252991,0.952988 -4.399994,2.102997 -6.453003,3.447998c-1.962006,1.591995 -3.819,3.265991 -4.858978,5.643997c-1.247009,2.832001 -2.413025,5.653992 -2.938019,8.729996c-0.375,2.701996 -0.796997,5.419006 -0.757996,8.156998c0.080994,1.701004 0.059998,3.487 0.638,5.098007c1.145996,3.199005 -5.372009,3.778 -4.786987,0.429993z" id="path2765"/>
  <path fill="#003f7f" fill-rule="nonzero" stroke-width="1px" d="m400.778992,228.324997c0.308014,-1.617004 0.39502,-3.231003 0.649017,-4.858994c0.266998,-3.334 0.691986,-6.608002 1.230988,-9.914001c0.783997,-3.770996 1.746002,-7.488998 2.679016,-11.223999c0.583984,-3.225998 1.588989,-6.348007 2.710999,-9.415009c0.813995,-2.460999 1.981995,-4.715988 3.376984,-6.884995c1.128998,-1.884995 2.847015,-3.218002 4.488007,-4.582993c1.704987,-1.667007 3.536987,-2.16301 5.81601,-2.471008c3.066986,-0.089005 5.649994,1.082001 8.299988,2.350998c3.200989,2.484009 5.81601,5.570007 8.033997,8.951996c2.932007,4.074005 4.658997,8.78801 6.843018,13.26001c2.610992,4.496002 4.356995,9.421997 6.093994,14.302994c1.415985,4.52301 2.082001,9.199997 3.473999,13.725998c0.296997,0.965012 -1.067993,1.38501 -1.365021,0.419998l0,0c-1.380981,-4.488998 -3.475983,-8.640991 -5.304993,-12.959c-1.834991,-4.73999 -3.942993,-9.337997 -5.987,-13.987c-2.083984,-4.291992 -4.483978,-8.445999 -6.97998,-12.508987c-2.058014,-2.84201 -4.13501,-5.692001 -7.078003,-7.67601c-1.789001,-1.304001 -3.473022,-2.645996 -5.777008,-2.67099c-1.477997,0.365997 -3.050995,0.495987 -4.356995,1.463989c-1.404022,1.24501 -2.868011,2.391998 -4.057007,3.883011c-1.283997,1.987991 -2.691986,3.931992 -3.553009,6.166c-1.171997,2.972992 -2.356995,5.92099 -3.233002,9.000992c-0.97998,3.664001 -2.042999,7.339996 -2.485992,11.117004c-0.397003,3.246994 -0.847992,6.498993 -0.863983,9.780991c0.102997,1.582001 0.02298,3.168015 0.376984,4.729004c0.475006,2.089996 -3.432007,2.104996 -3.031006,0z" id="path2767"/>
  <path fill="#003f7f" fill-rule="nonzero" stroke-width="1px" d="m436.225006,165.406006c2.167999,-2.41301 3.453003,-5.472 5.067993,-8.27301c2.412994,-4.085999 5.160004,-7.957993 7.957001,-11.785995c2.252991,-3.209 4.778992,-6.201004 7.341003,-9.162003c1.423004,-2.052002 3.279999,-3.565002 5.212006,-5.078995c2.319,-1.320007 3.553986,-0.513 5.731995,0.429001c1.860992,1.731003 3.644989,3.554993 5.406006,5.360001c2.423004,3.543991 4.820984,7.07399 6.759003,10.916992c2.093994,4.082001 4.188995,8.115997 5.746002,12.445007c1.491974,3.685989 2.687988,7.474991 3.809998,11.289001c0.953003,2.502991 0.860992,5.21199 0.867981,7.783997c0.002014,1.009995 -0.942993,1.209 -1.394989,0.306l0,0c-1.110016,-2.212006 -2.317017,-4.540009 -2.973999,-7.042007c-1.188995,-3.714996 -2.31601,-7.44899 -3.477997,-11.168991c-1.556,-4.14801 -3.050995,-8.365005 -5.102997,-12.290009c-1.951019,-3.582001 -3.714996,-7.362991 -6.514008,-10.376999c-1.343018,-1.832001 -2.554993,-3.703995 -4.598999,-4.834c-1.028992,-0.326996 -1.903015,-1.091995 -3.108002,-0.729996c-1.894012,1.121994 -3.777008,2.251999 -5.277008,3.949997c-2.549988,2.91301 -5.048981,5.869003 -7.27298,9.044998c-2.766022,3.787003 -5.484009,7.615997 -7.872009,11.656998c-1.630005,2.827011 -3.40802,5.634003 -4.270996,8.800003c-0.444,1.625 -3.161011,0.013 -2.035004,-1.23999z" id="path2769"/>
  <path fill="#003f7f" fill-rule="nonzero" stroke-width="1px" d="m451.19101,226.690994c0.845001,-1.865997 2.208984,-3.419998 3.332977,-5.128998c2.439026,-3.748001 5.282013,-7.192993 7.934021,-10.787994c3.204987,-4.216995 6.908997,-8.003006 10.285004,-12.074005c2.894989,-3.522995 6.062988,-6.789993 9.34198,-9.951004c2.358002,-2.326996 4.776001,-4.579987 7.194,-6.847c1.492004,-1.597 3.386993,-2.673996 5.200012,-3.806c3.436981,-0.888992 4.506989,1.144012 5.013,4.137009c0.980988,2.901001 1.386993,5.899002 1.720001,8.955002c0.580994,4.356003 0.792999,8.748001 0.985992,13.134995c0.118988,3.065002 0.303009,6.126999 0.457001,9.19101c0.050995,1.008987 -1.375,1.080994 -1.425995,0.071991l0,0c-0.154999,-3.067001 -0.338989,-6.132004 -0.458008,-9.199997c-0.190002,-4.322998 -0.347992,-8.666 -1.031982,-12.944c-0.749023,-2.701996 -1.359009,-5.625 -2.749023,-8.028c-1.015991,0.173004 -1.574005,-0.164001 -0.336975,0.056992c-1.360016,0.746002 -2.732025,1.473007 -3.902008,2.584c-2.602997,1.950012 -5.166016,3.927002 -7.705017,5.960007c-3.28299,2.910995 -6.569,5.820007 -9.445984,9.149017c-3.476013,3.875 -6.473999,8.126984 -9.628021,12.264984c-2.629974,3.397003 -4.598999,7.151993 -6.367981,11.061996c-0.839996,1.716995 -1.446014,3.537003 -2.46701,5.143997c-2.514984,3.960022 -7.881989,1.330002 -5.945984,-2.944z" id="path2771"/>
  <path fill="#003f7f" fill-rule="nonzero" stroke-width="1px" d="m467.459991,249.988998c1.145996,-1.630005 2.290009,-3.214996 3.619019,-4.703003c1.269989,-2.031998 3.082001,-3.401993 5.019989,-4.725998c0.834015,-0.569992 1.566986,0.375 0.885986,1.121002l0,0c-1.437988,1.574005 -2.892975,3.167999 -4.313995,4.779999c-0.845978,1.548004 -1.841003,3.055008 -1.971985,4.850006c-0.179016,2.468002 -4.662018,0.701996 -3.239014,-1.322006z" id="path2773"/>
  <path fill="#003f7f" fill-rule="nonzero" stroke-width="1px" d="m490.940002,247.807007c-0.431,-1.028 -1.201996,-1.819 -1.834991,-2.719009c-1.676025,-1.483994 -3.69101,-2.274002 -5.687012,-3.192001c-0.471008,0.026001 -0.941986,0.05101 -1.412994,0.076004c-1.007996,0.054001 -1.078003,-1.382004 -0.069,-1.427002l0,0c0.533997,-0.024002 1.066986,-0.048004 1.600983,-0.071991c2.94101,-0.235001 5.469025,-0.153 7.972015,1.85199c1.319,1.089005 2.593994,2.089996 3.187012,3.778c0.96698,2.751007 -2.629028,4.393997 -3.756012,1.70401z" id="path2777"/>
  <path fill="#003f7f" fill-rule="nonzero" stroke-width="1px" d="m500.033997,223.057007c-1.738983,1.64299 -2.406006,4.210999 -3.033997,6.511993c-1.479004,6.123993 -1.821991,12.520004 -2.209015,18.800995c-0.208984,3.320007 -0.097992,6.643005 0.028015,9.963013c0.037994,1.009003 -1.390015,1.062988 -1.428009,0.052979l0,0c-0.125977,-3.366989 -0.237976,-6.735992 -0.026001,-10.103989c0.394012,-6.375992 1.194,-12.707993 1.69101,-19.067993c0.303009,-3.072006 0.260986,-6.26001 1.330994,-9.189011c1.149994,-3.148987 6.084015,0.728012 3.647003,3.032013z" id="path2783"/>
  <path fill="#003f7f" fill-rule="nonzero" stroke-width="1px" d="m504.990997,222.201996c-0.320007,1.205002 -0.070984,2.391998 -0.024994,3.598999c0.037994,1.01001 -1.071014,1.189011 -1.408997,0.237l0,0c-0.365021,-1.028992 -0.364014,-2.159988 -1.338013,-2.882996c-1.664001,-1.235992 3.304993,-2.955994 2.772003,-0.953003z" id="path2785"/>
  <path fill="#003f7f" fill-rule="nonzero" stroke-width="1px" d="m510.075989,228.822998c-0.149994,-2.173004 -0.356995,-4.151001 -0.166992,-6.328995c0.234009,-3.035004 1.088013,-6.028 1.881012,-8.970001c0.488007,-2.608002 1.550018,-4.966995 2.766022,-7.294006c1.134949,-1.937988 2.540955,-3.302994 4.385986,-4.464996c4.153992,-0.470001 4.783997,2.274994 6.310974,5.550995c1.66803,4.94101 3.796997,9.694 5.484009,14.629013c0.346008,1.082993 0.692017,2.165985 1.038025,3.248993c0.306946,0.962006 -1.05304,1.397003 -1.361023,0.434998l0,0c-0.343018,-1.074005 -0.685974,-2.147995 -1.028992,-3.222c-1.630005,-4.772003 -3.156982,-9.710999 -6.661011,-13.479004c-0.669983,-0.646988 -3.802002,-2.334 -1.794983,-2.235992c-0.650024,0.524002 -1.915039,0.972992 -2.30603,2.084991c-1.143005,1.866013 -2.330994,3.71701 -2.929016,5.856003c-0.723999,2.768005 -1.412964,5.525009 -1.93396,8.322998c-0.239014,1.993011 -0.926025,3.872009 -0.914001,5.867004c0.011963,1.959 -2.63501,1.953995 -2.77002,0z" id="path2787"/>
  <path fill="#003f7f" fill-rule="nonzero" stroke-width="1px" d="m497.368988,165.695007c1.850006,-2.793015 4.028015,-5.450012 5.835022,-8.369003c3.056,-4.906006 5.997986,-9.880997 8.928986,-14.863007c2.083008,-3.604004 4.419983,-7.046997 6.724976,-10.509995c1.630005,-2.602005 3.717041,-4.187004 6.436035,-5.402c3.461975,-0.288002 5.34198,1.700005 7.416016,4.178993c2.721008,2.927002 3.860962,6.669998 4.904968,10.447998c1.536987,5.303009 2.799988,10.70401 3.551025,16.175003c0.984985,5.641006 1.062012,11.360001 1.312988,17.061005c0.163025,2.393005 -0.158997,4.761002 -0.234985,7.149994c-0.032043,1.01001 -1.460022,0.964005 -1.42804,-0.044998l0,0c0.07605,-2.373001 -0.109985,-4.716995 0.017029,-7.089005c0.143005,-5.630997 -0.322998,-11.273987 -1.129028,-16.845993c-0.961975,-5.350006 -1.72699,-10.75 -3.451965,-15.931c-1.43103,-3.352005 -3.402039,-6.266006 -5.515015,-9.212997c-1.481995,-1.320999 -2.671021,-2.867996 -4.765015,-3.059006c-2.312988,0.729004 -4.164001,1.514999 -5.700012,3.658997c-2.615967,3.170013 -4.894958,6.553009 -6.907959,10.147003c-2.936005,4.990997 -5.884003,9.975998 -8.945007,14.891006c-1.768005,2.856003 -3.20401,5.878998 -4.610992,8.824997c-0.830017,1.736008 -3.502014,0.397003 -2.439026,-1.207993z" id="path2791"/>
  <path fill="#003f7f" fill-rule="nonzero" stroke-width="1px" d="m537.872009,184.748001c2.34198,-1.496002 4.09198,-3.723007 5.960999,-5.746994c1.848022,-2.198013 3.427002,-4.568008 5.167969,-6.845001c1.140015,-1.613007 2.683044,-2.872009 4.174011,-4.153c2.802002,-0.827011 4.304016,-0.190002 6.311035,1.630997c1.809998,2.867004 2.643982,5.964996 3.329956,9.244003c0.57605,5.591995 0.886047,11.207001 0.75,16.828995c-0.132996,6.722 -1.061951,13.395004 -1.901978,20.057999c-1.513977,7.393997 -3.453979,14.664001 -5.958008,21.787003c-2.869995,6.742996 -4.380981,14.009003 -7.854004,20.479004c-2.273987,2.567993 -3.880981,5.191986 -5.073975,8.373993c-0.354004,0.946014 -1.692017,0.445007 -1.337036,-0.501007l0,0c1.19104,-3.177979 1.697998,-6.196991 1.640015,-9.623993c1.539001,-7.125992 5.22998,-13.535004 7.189026,-20.554993c2.180969,-6.805008 4.709961,-13.595001 5.110962,-20.80101c0.903992,-6.378998 1.317017,-12.800003 1.437012,-19.240997c-0.096008,-5.153992 -0.177979,-10.328003 -1.515015,-15.347c-0.531982,-2.397003 -0.987,-4.817993 -1.29895,-7.237991c0.186951,-0.233002 0.997986,-0.823013 0.969971,-1.209c-1.236023,0.576996 -2.781006,1.123993 -3.880981,2.303986c-2.170044,1.792007 -4.335999,3.608002 -6.187012,5.751007c-1.690979,2.026993 -3.765991,3.923996 -4.401978,6.550995c-0.525024,2.171005 -4.514038,-0.543991 -2.632019,-1.746994z" id="path2793"/>
  <path fill="#003f7f" fill-rule="nonzero" stroke-width="1px" d="m378.822998,179.901993c1.076996,-2.964996 2.710999,-5.761993 4.022003,-8.67099c2.777008,-6.124008 5.126007,-12.449005 7.540009,-18.729004c2.119995,-5.511002 3.914001,-11.141006 6.122986,-16.617996c1.152008,-3.697998 2.515015,-7.311005 4.110016,-10.828003c1.255981,-2.797997 3.10498,-4.767998 5.513,-6.520996c3.92099,-2.027 6.547974,-0.129005 9.68399,2.279999c3.141998,3.355995 6.251007,6.796997 8.679993,10.709991c2.904999,4.462006 5.630005,9.082001 8.186005,13.76001c2.222015,4.244995 4.042999,8.682999 5.924011,13.084991c0.397003,0.929001 -0.920013,1.484009 -1.317017,0.555008l0,0c-1.862,-4.358002 -3.662994,-8.751007 -5.859985,-12.955002c-2.511017,-4.598007 -5.380005,-8.846008 -9.312012,-12.376007c-3.265991,-2.695999 -6.031982,-6.010994 -9.64801,-8.272995c-1.017975,-0.515999 -2.04599,-1.116997 -3.071991,-1.558998c-1.302002,1.243996 -2.626007,2.346001 -3.39801,4.051003c-1.778992,3.231995 -3.575989,6.492996 -5.097992,9.875992c-2.274994,5.429001 -4.792999,10.756012 -6.955994,16.230011c-2.506989,6.080994 -5.25,12.232986 -6.291992,18.757996c-0.466003,2.895004 -0.783997,5.798996 -0.970001,8.695999c-0.360992,5.641998 -9.789001,3.843002 -7.859009,-1.471008z" id="path2805"/>
  <path fill="#003f7f" fill-rule="nonzero" stroke-width="1px" d="m332.631989,161.371994c1.736023,-1.431992 3.134003,-3.192993 4.578003,-4.87999c1.904022,-2.980011 3.693024,-6.031998 5.549011,-9.042999c0.513,-0.900009 1.125,-1.737 1.687988,-2.605011c0.549011,-0.847992 1.737,-0.054001 1.187012,0.794006l0,0c-0.554016,0.856003 -1.160004,1.679993 -1.664001,2.567993c-1.847015,2.998001 -3.727997,5.981003 -5.395996,9.083008c-0.748993,2.052994 -1.610992,4.106003 -1.985016,6.287003c-0.539978,3.156998 -6.427979,-0.166 -3.957001,-2.20401z" id="path2811"/>
  <path fill="#003f7f" fill-rule="nonzero" stroke-width="1px" d="m367.048004,134.641998c2.110992,0.289001 3.742981,1.563004 5.575989,2.567001c2.360016,1.550003 4.791992,2.962006 7.199005,4.421005c2.201996,1.167999 4.002991,2.789993 5.731995,4.554001c1.247009,1.556992 2.429993,2.972 3.882996,4.268997c0.97702,0.832993 1.822998,1.834991 2.669006,2.776001c-0.266998,0.470001 -0.533997,0.940994 -0.800995,1.410995c-0.566986,0.999008 -0.178009,0.548996 -1.171997,1.126999l0,0c-0.460999,0.268005 -0.921997,0.535995 -1.384003,0.804001c-0.959991,-0.923996 -1.958008,-1.862 -2.839996,-2.875992c-1.097992,-1.617004 -2.277008,-3.071014 -3.608002,-4.530014c-1.502991,-1.46199 -2.987,-2.970993 -4.699005,-4.217987c-2.186005,-1.623001 -4.358002,-3.226013 -6.934998,-4.215012c-1.595001,-0.867996 -3.208008,-1.603989 -4.816986,-2.363998c-2.503021,-1.181992 -1.545013,-4.10199 1.196991,-3.725998z" id="path2833"/>
  <path fill="#003f7f" fill-rule="nonzero" stroke-width="1px" d="m467.670013,131.276001c1.84198,-1.037994 3.337982,-2.567001 4.882996,-3.981003c2.862976,-2.253998 5.166992,-5.080002 7.621979,-7.75c1.63501,-2.114998 3.456024,-4.07 5.319,-5.978996c2.094025,-2.004005 4.137024,-2.014999 6.822998,-1.827003c3.206024,1.253998 5.436005,4.053001 7.791016,6.437004c2.854004,3.215996 5.290985,6.768997 7.855988,10.215996c1.835022,2.658997 3.675018,5.259003 5.093018,8.160004c0.51001,1.231995 0.151001,2.522003 -0.031006,3.798996c-0.142029,1 -0.508972,1.072006 -1.338989,0.496002l0,0c-0.933014,-0.647995 -1.956024,-1.287994 -2.602997,-2.238007c-1.556,-2.647995 -2.759003,-5.480988 -4.384003,-8.097992c-2.070007,-3.542 -4.245026,-6.967003 -7.149017,-9.905998c-1.847992,-1.844002 -3.536987,-3.701004 -6.20401,-4.475006c-1.15097,0.070999 -2.076996,-0.487 -3.095978,0.650002c-1.975006,1.589005 -3.933014,3.191002 -5.791016,4.919998c-2.53299,2.577003 -5.190979,5.051003 -7.167999,8.100998c-1.268982,1.697006 -2.623993,3.374008 -3.583984,5.278c-1.765015,3.503006 -7.455017,-1.877991 -4.037994,-3.802994z" id="path2841"/>
  <path fill="#003f7f" fill-rule="nonzero" stroke-width="1px" d="m283.04599,168.395996c0.275024,-2.076996 0.503998,-4.181992 0.851013,-6.253998c0.475983,-2.953995 0.86499,-5.908997 1.10199,-8.889999c0.15802,-2.5 1.123993,-4.608994 2.406006,-6.703995c2.433014,-2.559998 4.744995,-2.31601 7.855988,-1.906998c3.33902,0.975998 6.266022,2.477997 9.171021,4.338989c3.03299,2.486008 5.954987,5.026001 8.778992,7.746002c2.127991,1.740997 3.61499,3.910995 5.029999,6.218002c0.528015,0.860992 -0.332001,1.580994 -1.095001,0.917999l0,0c-1.984985,-1.725998 -3.841003,-3.524002 -5.441986,-5.628006c-2.641022,-2.682999 -5.196014,-5.54599 -8.425995,-7.538986c-2.570007,-1.621002 -4.96402,-3.53801 -8.154022,-3.094009c-1.421997,0.511002 -2.901001,0.675995 -3.96698,1.843002c-0.757019,1.462997 -1.853027,2.766006 -2.012024,4.589005c-0.772003,2.793991 -1.260986,5.625992 -1.503998,8.528c-0.160004,2.156998 -0.470001,4.299988 -0.777985,6.424988c-0.391022,2.703003 -4.175018,2.118011 -3.817017,-0.589996z" id="path2845"/>
  <path fill="#003f7f" fill-rule="nonzero" stroke-width="1px" d="m398.921997,250.371994c1.117004,1.861008 1.302002,3.975006 1.522003,6.103012c0.622986,3.901001 0.904999,7.196991 -0.901001,10.790985c0.085999,0.71701 0.173004,1.434021 0.26001,2.151001c0.121979,1.002014 -1.296021,1.174011 -1.417999,0.171997l0,0c-0.087006,-0.714996 -0.173004,-1.429993 -0.26001,-2.144989c-2.552002,-2.972015 -3.092987,-6.162994 -3.674988,-9.958008c-0.416016,-2.18399 -0.928009,-4.343994 -0.132019,-6.47699c1.149994,-3.078003 2.912994,-3.455002 4.604004,-0.637009z" id="path2853"/>
  <path fill="#003f7f" fill-rule="nonzero" stroke-width="1px" d="m413.095001,246.841995c0.132996,2.656006 -0.231995,5.799011 -0.230011,8.656006c0.182007,3.499985 -0.68399,6.783005 -0.329987,10.24501c0.10199,1.004974 -1.29599,1.162994 -1.420013,0.160004l0,0c-0.431,-3.496002 -1.961975,-6.624023 -2.199005,-10.187012c-0.301971,-2.755005 -0.842987,-5.751999 -1.232971,-8.291c-0.584015,-3.805008 5.218994,-4.428009 5.411987,-0.583008z" id="path2855"/>
  <path fill="#003f7f" fill-rule="nonzero" stroke-width="1px" d="m428.373993,233.587006c0.244019,2.858994 -0.359985,5.612991 -0.821991,8.421997c-0.164001,5.432999 -2.445007,10.207993 -3.967987,15.298004c-0.289001,0.967987 -1.222015,0.931 -1.427002,-0.058014l0,0c-1.081024,-5.200989 -2.716003,-10.172989 -2.252014,-15.580994c-0.197998,-2.440994 -0.570984,-4.880997 -0.751984,-7.309998c-0.483002,-6.525009 8.662994,-7.290009 9.220978,-0.770996z" id="path2857"/>
  <path fill="#003f7f" fill-rule="nonzero" stroke-width="1px" d="m438.48999,246.916c-0.388,2.410004 -0.949005,4.841003 -1.298004,7.291992c-0.337982,2.86702 -1.300995,5.522018 -1.814972,8.347c-0.180023,0.993011 -1.415009,0.888 -1.423004,-0.122986l0,0c-0.02301,-2.912018 -0.483002,-5.729004 -0.072998,-8.646011c0.252991,-2.388992 0.372986,-4.774002 0.390991,-7.156998c0.02301,-2.988998 4.694,-2.664001 4.217987,0.287003z" id="path2859"/>
  <path fill="#003f7f" fill-rule="nonzero" stroke-width="1px" d="m452.981995,240.660004c-0.665009,3.43399 -2.028992,6.957993 -3.018982,10.393997c-1.410004,4.600998 -3.552002,8.664993 -4.348999,13.443985c-0.166016,0.996002 -1.575012,0.762024 -1.409027,-0.234985l0,0c0.788025,-4.727997 0.222015,-9.266006 0.35202,-14.029999c0.050995,-3.431 -0.311005,-6.893997 -0.597992,-10.216003c-0.550018,-6.373001 10.237976,-5.636993 9.02298,0.643005z" id="path2861"/>
  <path fill="#003f7f" fill-rule="nonzero" stroke-width="1px" d="m475.856995,418.365997c1.843018,2.421997 3.975006,4.649994 6.027008,6.915009c5.100983,3.373993 10.204987,7.231995 14.524994,11.643982c5.175018,5.457001 10.281006,10.944 15.447998,16.431c4.155029,4.483002 9.513,7.624023 14.476013,11.154999c5.013977,2.904999 10.35199,4.607025 15.878967,6.181c7.546021,1.721008 15.343018,1.866028 23.05304,1.888c11.045959,-0.319 22.047974,-1.337982 32.928955,-3.253998c12.649048,-2.11499 24.850037,-6.100983 36.832031,-10.580994c9.968994,-3.868988 19.667969,-8.399994 29.205017,-13.227997c5.098999,-2.794006 10.294006,-5.415009 15.401001,-8.179993c2.954956,-1.622009 5.807007,-2.743011 9.083984,-3.179016c2.026001,1.022003 4.203979,1.604004 6.242981,2.402008c1.330017,0.519989 1.222046,0.394989 0.929993,1.792999l0,0c-0.451965,2.162994 -1.055969,4.367004 -1.553955,6.582001c-2.815002,2.61499 -5.744019,4.285004 -9.604004,5.194c-5.558044,1.54599 -11.039001,3.365997 -16.588989,4.95401c-10.302002,3.274994 -20.440002,7.018982 -30.608032,10.681c-12.45697,4.251984 -25.002014,8.242981 -37.815979,11.289001c-11.230042,2.444 -22.502991,4.826996 -33.998047,5.634979c-8.795959,0.791016 -17.652954,1.360016 -26.41095,-0.197998c-6.976013,-1.502991 -13.923035,-4.061981 -19.55603,-8.543976c-5.638,-4.213013 -10.665985,-8.615021 -15.016998,-14.210022c-4.85199,-5.687988 -9.393982,-11.610992 -14.243988,-17.273987c-4.041992,-4.528015 -7.677002,-9.451019 -11.54599,-14.063019c-2.435028,-2.061981 -4.853027,-4.172974 -7.287018,-6.205994c-3.083008,-2.574982 1.765991,-7.02298 4.197998,-3.826996z" id="path2872"/>
  <path fill="#003f7f" fill-rule="nonzero" stroke-width="1px" d="m554.617004,375.049988c5.596008,0.677002 11.156982,-0.067993 16.685974,-0.961975c13.58905,-1.650024 26.559021,-6.175018 39.408997,-10.671021c14.387024,-4.960999 28.460022,-10.734985 42.286011,-17.076996c9.263,-4.776001 17.888,-10.609009 26.429016,-16.544983c5.442993,-3.801025 10.914978,-7.535004 16.166016,-11.591003c3.848999,-2.910004 7.26001,-6.278015 10.523987,-9.798004c1.854004,-1.884003 3.270996,-3.957001 4.611023,-6.196991c0.148987,-0.538025 0.024963,-1.117004 0.036987,-1.675018c0.711975,0.117004 -3.762024,-1.390991 -4.509033,-1.610992c-7.747986,-1.368011 -15.697998,-1.067993 -23.52301,-0.582001c-10.774963,0.480011 -21.462952,2.113007 -32.132996,3.613007c-10.338989,1.673004 -20.690002,3.276001 -31.009949,5.062988c-1.40802,0.243011 -1.752014,-1.747986 -0.345032,-1.990997l0,0c10.341003,-1.790009 20.713989,-3.397003 31.073975,-5.071991c10.718018,-1.507019 21.459045,-2.778015 32.198059,-4.097015c8.143982,-0.90799 16.211975,-2.279999 24.360962,-3.091003c4.734985,0.196014 9.200989,-0.082001 12.126038,4.222015c0.60498,3.167999 0.927002,5.656982 -0.862,8.561005c-1.634033,3.153992 -3.176025,6.461975 -5.802002,8.931976c-3.890015,3.495026 -7.890015,6.943024 -12.27301,9.870026c-5.736023,3.723999 -11.330994,7.677979 -17.48999,10.699982c-9.377014,4.804016 -19.01001,9.078003 -28.736023,13.125c-13.88501,6.368011 -28.015991,12.166016 -42.461975,17.147003c-12.982056,4.542999 -25.960999,9.096008 -38.787048,14.06601c-5.841003,1.901978 -11.513,4.208984 -17.323975,6.139984c-7.044983,2.341003 -8.020996,-11.369995 -0.651001,-10.479004z" id="path2880"/>
  <path fill="#003f7f" fill-rule="nonzero" stroke-width="1px" d="m449.214996,426.281006c-2.911987,-0.490997 -5.576996,0.496002 -8.32901,1.281006c-4.524994,3.586975 -3.832977,0.297974 -5.120972,0.17099c2.833984,1.187012 5.972992,0.67099 8.97699,0.496002c4.085999,-0.985992 5.309998,-1.492004 8.713989,0.027985c-0.328003,2.845001 -2.075989,5.118011 -3.329987,7.694c2.850006,4.183014 2.246002,9.570007 3.10199,15.009003c0.446014,6.709015 1.852997,13.083008 0.768005,19.785004c-2.028992,12.821991 -3.339996,25.730011 -4.718994,38.643005c-1.330994,20.263977 -3.08902,40.518005 -3.755005,60.815979c-0.782013,19.953003 -0.683014,39.93103 -1.488007,59.882996c0.679993,9.526001 -1.764008,18.704041 -2.828003,28.065002c-0.16098,1.419006 -1.895996,1.397034 -2.019989,-0.026001l0,0c-0.821991,-9.411987 -2.917999,-18.698975 -1.683014,-28.217957c0.286011,-19.970032 1.559998,-39.913025 1.876007,-59.882996c0.519012,-20.322021 0.162994,-40.665039 0.118011,-60.992035c-0.44101,-13.158997 -0.861023,-26.338989 -1.145996,-39.484985c-0.025024,-6.677002 2.53299,-12.334015 3.79599,-18.802002c0.45401,-6.128998 1.031006,-11.05899 4.552002,-15.632996c0.221985,-1.037994 1.451996,-8.388 1.84198,-5.005005c-1.218994,0.045013 -2.438995,0.210999 -3.656982,0.136993c-3.959991,0.22699 -8.114014,0.863007 -11.847992,-0.695007c-2.888,-5.358978 2.018982,-5.453979 6.166992,-7.067993c2.96701,-1.027985 5.998993,-1.987 8.833008,-3.346008c4.617004,-2.212982 6.227997,7.994019 1.178986,7.14502z" id="path2882"/>
  <path fill="#003f7f" fill-rule="nonzero" stroke-width="1px" d="m426.381012,648.541992c12.850983,-1.094971 24.246979,-10.002014 35.34198,-16.070007c33.001007,-17.825012 67.990021,-31.445007 103.240021,-44.057983c42.820984,-15.062012 87.252991,-24.143005 132.234985,-29.474976c30.52301,-3.055054 61.367004,-1.54303 91.76001,2.000977c24.213013,3.771973 21.896973,22.732971 5.848999,35.588013c-6.958984,4.094971 -13.21698,9.692993 -18.031006,16.174988c-4.674011,-18.919006 6.388,-6.513977 17.869019,0.090027c14.006958,6.731995 25.677979,15.234985 32.286011,29.496948c3.715942,17.420044 -9,26.983032 -22.343018,34.94104c-18.702026,8.947998 -38.921021,14.060974 -59.153015,18.164978c-30.213013,4.241028 -60.593994,4.091003 -90.987,2.685974c-39.890991,-2.627991 -79.64502,-6.945984 -119.455994,-10.541992c-34.028992,-3.346985 -68.188995,-4.711975 -102.356995,-5.519958c-13.789001,-0.485046 -29.097015,-0.988037 -40.851013,6.018982c6.165009,-13.815002 5.73999,-9.054993 21.893005,-3.672974c25.147003,7.802979 51.480011,10.138 77.652985,11.214966c31.84903,1.005981 63.720001,0.726013 95.579987,0.77002c28.054016,0.122986 56.104004,0.463989 84.15802,0.112976c12.207031,-0.128967 24.406006,-0.632996 36.604004,-1.107971c2.018005,-0.079041 2.130005,2.776001 0.111023,2.85498l0,0c-12.223022,0.476013 -24.447021,0.981018 -36.679993,1.109985c-28.06604,0.351013 -56.130005,0.01001 -84.197021,-0.112976c-31.89801,-0.044006 -63.807007,0.237 -95.692993,-0.77301c-26.568024,-1.093018 -53.154022,-1.72699 -79.696014,-3.388c-9.34201,-0.799011 -46.450012,-5.5 -22.937012,-20.210999c14.634003,2.095032 29.265015,4.76001 44.123016,4.327026c34.230988,0.809998 68.45401,2.177979 102.546021,5.531982c39.768982,3.59198 79.481995,7.904968 119.330994,10.53302c29.875,1.382996 60.520996,3.072998 89.687988,-4.821045c18.968994,-5.052002 37.279968,-11.950989 52.968994,-24.105957c6.320984,-4.901001 12.494995,-9.954041 13.351013,-18.357056c-3.54303,-10.813965 -10.715027,-17.533997 -21.69104,-21.950989c-15.134949,-4.453979 -32.059998,-1.830994 -33.221985,-21.583984c7.473999,-9.221008 19.577026,-11.898987 28.18103,-20.171021c6.076965,-6.427002 11.247986,-4.339966 1.916992,-13.279968c-26.926025,-15.247986 -58.406982,-11.231018 -88.238037,-9.182007c-44.769958,5.301025 -88.990967,14.341003 -131.609985,29.328003c-35.109985,12.560974 -69.959991,26.124023 -102.830994,43.875c-11.684998,6.390015 -24.225983,11.958984 -34.252991,20.815002c-4.05899,3.585022 -7.855011,-6.79303 -2.459991,-7.252014z" id="path2965"/>
  <path fill="#003f7f" fill-rule="nonzero" stroke-width="1px" d="m416.670013,646.11499c-1.805023,-9.77301 -6.615021,-18.620972 -11.081024,-27.498962c-15.278992,-23.679016 -39.85199,-39.338013 -63.323975,-53.972046c-36.006012,-21.305969 -75.549011,-35.06897 -115.528015,-46.70697c-41.313004,-11.462006 -83.832001,-16.811005 -126.596001,-17.904999c-26.881699,1.161987 -58.4865,0.54599 -79.221699,20.168976c-11.74329,18.296021 -0.653601,35.202026 12.3517,49.221985c28.943401,25.081055 64.766499,39.21405 100.432995,51.753052c32.271011,9.888 66.139999,18.867981 100.018005,13.878967c13.378998,-4.281982 21.904007,-10.877991 16.582993,-24.60199c-12.897995,-23.427979 -39.360992,-29.867981 -63.334,-36.229004c-35.369995,-8.458984 -71.637993,-9.60199 -107.751091,-7.211975c-23.210701,3.482971 -51.881403,4.492981 -68.070002,23.774963c-7.48989,14.389038 4.8474,25.97699 14.7491,35.377014c30.051699,18.742004 64.933496,26.947998 99.074999,34.70697c43.598999,9.489014 88.128998,12.100037 132.617004,12.192017c33.64801,-0.184998 67.13501,-3.425964 100.445984,-7.912964c2.002014,-0.269043 2.384003,2.561951 0.381012,2.83197l0,0c-33.438995,4.502014 -67.056,7.755005 -100.833008,7.937988c-44.697998,-0.094971 -89.438995,-2.724976 -133.244995,-12.263c-34.539497,-7.852966 -69.798096,-16.195007 -100.177597,-35.198975c-15.553589,-9.427979 -34.672899,-24.801025 -17.226019,-42.637024c21.86312,-13.408997 46.63502,-19.503967 72.095221,-21.659973c36.423401,-2.402039 73.002396,-1.242981 108.673401,7.302002c25.929001,6.893005 54.048996,14.966003 73.854996,33.862c11.127991,22.732971 -4.799988,34.666016 -27.488998,34.309998c-34.561005,0.266968 -68.544998,-4.130005 -101.313995,-15.764038c-36.081505,-12.690979 -72.302292,-27.020996 -101.534704,-52.45697c-15.5723,-15.317993 -35.38634,-35.872986 -13.3004,-55.213013c25.197001,-14.928986 53.102102,-19.53299 82.292097,-19.024994c43.010002,1.108002 85.771996,6.481995 127.321007,18.017975c40.229004,11.71405 80.015991,25.574036 116.242004,47.026001c24.235992,15.119019 46.888,32.093018 66.518005,52.989014c7.84198,7.983032 15.655975,16.975037 19.728973,27.424988c3.542999,9.092041 -11.582001,13.077026 -13.353973,3.481018z" id="path2971"/>
 </g>
</svg>